<svg width="233" height="48" viewBox="0 0 233 48" fill="none" xmlns="http://www.w3.org/2000/svg">
<mask id="mask0_37_33" style="mask-type:alpha" maskUnits="userSpaceOnUse" x="0" y="0" width="231" height="48">
<path d="M74.596 20.664V18H78.412V35.172C78.412 37.908 77.512 40.008 75.712 41.472C73.936 42.936 71.752 43.668 69.16 43.668C65.008 43.668 62.164 42.216 60.628 39.312L63.976 37.368C64.912 39.216 66.664 40.14 69.232 40.14C70.912 40.14 72.22 39.696 73.156 38.808C74.116 37.944 74.596 36.732 74.596 35.172V32.976C73.132 35.064 71.044 36.108 68.332 36.108C65.812 36.108 63.664 35.208 61.888 33.408C60.136 31.584 59.26 29.388 59.26 26.82C59.26 24.228 60.136 22.044 61.888 20.268C63.64 18.444 65.788 17.532 68.332 17.532C71.044 17.532 73.132 18.576 74.596 20.664ZM64.768 30.852C65.872 31.932 67.24 32.472 68.872 32.472C70.504 32.472 71.86 31.932 72.94 30.852C74.044 29.772 74.596 28.428 74.596 26.82C74.596 25.212 74.044 23.868 72.94 22.788C71.86 21.708 70.504 21.168 68.872 21.168C67.24 21.168 65.872 21.708 64.768 22.788C63.688 23.868 63.148 25.212 63.148 26.82C63.148 28.428 63.688 29.772 64.768 30.852ZM86.8318 18V21.024C87.8158 18.792 89.6638 17.676 92.3758 17.676V21.888C90.9118 21.792 89.6158 22.152 88.4878 22.968C87.3838 23.76 86.8318 25.08 86.8318 26.928V36H82.9438V18H86.8318ZM111.793 28.656H97.4647C97.7527 30 98.4007 31.044 99.4087 31.788C100.441 32.532 101.713 32.904 103.225 32.904C105.265 32.904 106.813 32.16 107.869 30.672L111.073 32.544C109.321 35.16 106.693 36.468 103.189 36.468C100.285 36.468 97.9207 35.58 96.0967 33.804C94.2967 32.004 93.3967 29.736 93.3967 27C93.3967 24.336 94.2847 22.092 96.0607 20.268C97.8127 18.444 100.093 17.532 102.901 17.532C105.517 17.532 107.677 18.456 109.381 20.304C111.085 22.152 111.937 24.396 111.937 27.036C111.937 27.516 111.889 28.056 111.793 28.656ZM97.4287 25.488H108.013C107.749 24.072 107.149 22.98 106.213 22.212C105.301 21.444 104.185 21.06 102.865 21.06C101.425 21.06 100.225 21.456 99.2647 22.248C98.3047 23.04 97.6927 24.12 97.4287 25.488ZM132.64 28.656H118.312C118.6 30 119.248 31.044 120.256 31.788C121.288 32.532 122.56 32.904 124.072 32.904C126.112 32.904 127.66 32.16 128.716 30.672L131.92 32.544C130.168 35.16 127.54 36.468 124.036 36.468C121.132 36.468 118.768 35.58 116.944 33.804C115.144 32.004 114.244 29.736 114.244 27C114.244 24.336 115.132 22.092 116.908 20.268C118.66 18.444 120.94 17.532 123.748 17.532C126.364 17.532 128.524 18.456 130.228 20.304C131.932 22.152 132.784 24.396 132.784 27.036C132.784 27.516 132.736 28.056 132.64 28.656ZM118.276 25.488H128.86C128.596 24.072 127.996 22.98 127.06 22.212C126.148 21.444 125.032 21.06 123.712 21.06C122.272 21.06 121.072 21.456 120.112 22.248C119.152 23.04 118.54 24.12 118.276 25.488ZM145.674 17.532C147.762 17.532 149.43 18.204 150.678 19.548C151.95 20.868 152.586 22.668 152.586 24.948V36H148.698V25.344C148.698 24 148.338 22.968 147.618 22.248C146.898 21.528 145.914 21.168 144.666 21.168C143.25 21.168 142.134 21.612 141.318 22.5C140.502 23.364 140.094 24.648 140.094 26.352V36H136.206V18H140.094V20.304C141.294 18.456 143.154 17.532 145.674 17.532ZM166.96 17.532C169.408 17.532 171.52 18.456 173.296 20.304C175.048 22.128 175.924 24.36 175.924 27C175.924 29.664 175.048 31.908 173.296 33.732C171.544 35.556 169.432 36.468 166.96 36.468C164.248 36.468 162.148 35.46 160.66 33.444V43.2H156.772V18H160.66V20.592C162.124 18.552 164.224 17.532 166.96 17.532ZM162.28 31.14C163.36 32.22 164.716 32.76 166.348 32.76C167.98 32.76 169.336 32.22 170.416 31.14C171.496 30.036 172.036 28.656 172.036 27C172.036 25.344 171.496 23.976 170.416 22.896C169.336 21.792 167.98 21.24 166.348 21.24C164.716 21.24 163.36 21.792 162.28 22.896C161.2 23.976 160.66 25.344 160.66 27C160.66 28.632 161.2 30.012 162.28 31.14ZM183.336 18V21.024C184.32 18.792 186.168 17.676 188.88 17.676V21.888C187.416 21.792 186.12 22.152 184.992 22.968C183.888 23.76 183.336 25.08 183.336 26.928V36H179.448V18H183.336ZM195.424 14.58C194.944 15.06 194.368 15.3 193.696 15.3C193.024 15.3 192.436 15.06 191.932 14.58C191.452 14.076 191.212 13.488 191.212 12.816C191.212 12.144 191.452 11.568 191.932 11.088C192.412 10.584 193 10.332 193.696 10.332C194.392 10.332 194.98 10.584 195.46 11.088C195.94 11.568 196.18 12.144 196.18 12.816C196.18 13.488 195.928 14.076 195.424 14.58ZM195.64 36H191.752V18H195.64V36ZM209.623 17.532C211.711 17.532 213.379 18.204 214.627 19.548C215.899 20.868 216.535 22.668 216.535 24.948V36H212.647V25.344C212.647 24 212.287 22.968 211.567 22.248C210.847 21.528 209.863 21.168 208.615 21.168C207.199 21.168 206.083 21.612 205.267 22.5C204.451 23.364 204.043 24.648 204.043 26.352V36H200.155V18H204.043V20.304C205.243 18.456 207.103 17.532 209.623 17.532ZM230.765 18V21.744H226.301V30.384C226.301 31.128 226.469 31.668 226.805 32.004C227.141 32.316 227.633 32.496 228.281 32.544C228.953 32.568 229.781 32.556 230.765 32.508V36C227.789 36.36 225.653 36.108 224.357 35.244C223.061 34.356 222.413 32.736 222.413 30.384V21.744H219.101V18H222.413V14.112L226.301 12.96V18H230.765Z" fill="#10B981"/>
<path d="M11.924 35.348C14 38.662 14 41.134 14 44H18C18 40.958 18 37.512 15.314 33.222L11.924 35.348ZM33.008 6.77397C27.954 3.81997 15.1 1.85197 8.56198 8.60997C1.82598 15.572 4.06398 26.754 8.56398 31.394C8.79998 31.638 9.05198 31.852 9.30198 32.06C9.44598 32.182 9.59398 32.292 9.71198 32.428L12.7 29.768C12.452 29.488 12.162 29.238 11.862 28.986C11.718 28.866 11.57 28.748 11.434 28.61C8.11398 25.188 6.42198 16.576 11.436 11.394C16.486 6.17197 27.572 8.23597 30.99 10.232C36.372 13.37 39.184 18.848 39.208 18.898L42.786 17.108C42.656 16.838 39.45 10.53 33.008 6.77397Z" fill="#10B981"/>
<path d="M18.68 25.644C16.62 23.124 15.106 21.01 15.896 18.632C16.422 17.062 17.522 15.982 19.17 15.424C21.618 14.604 25.01 15.104 27.25 16.626L29.496 13.318C26.2 11.078 21.532 10.404 17.888 11.636C15.072 12.588 13.018 14.626 12.104 17.368C10.552 22.024 13.702 25.876 15.584 28.178C15.882 28.544 16.164 28.886 16.402 29.202C22 36.646 22 40.218 22 44H26C26 39.928 26 35.31 19.598 26.798C19.33 26.442 19.016 26.056 18.68 25.644ZM30.262 18.956C33.932 22.484 36.33 27.85 38.04 36.358L41.962 35.568C40.084 26.212 37.33 20.198 33.036 16.072L30.262 18.956Z" fill="#10B981"/>
<path d="M23.112 18.338L20.882 21.658C20.936 21.696 26.304 25.418 28.484 33.106L32.332 32.016C29.734 22.852 23.38 18.518 23.112 18.338ZM29.376 36.918C29.796 39.254 30 41.57 30 44H34C34 41.33 33.776 38.784 33.314 36.21L29.376 36.918Z" fill="#10B981"/>
</mask>
<g mask="url(#mask0_37_33)">
<rect x="4" y="4" width="228" height="40" fill="#10B981"/>
<path d="M29 20C9.49996 0.499939 2.5 10.5 2.5 18.4999V46.4999L239 42.5001V20C236 15.6667 232 1.00006 222.564 -0.328992C187.064 -5.32891 150 17 132 28.5001C114 40.0001 56.7601 47.7601 29 20Z" fill="#059669"/>
</g>
</svg>
